<svg width="30" height="30" viewBox="0 0 30 30" fill="none" xmlns="http://www.w3.org/2000/svg">
<path d="M22.417 9.679C23.447 10.773 24 12 24 13.989C24 17.489 21.543 20.626 17.97 22.177L17.077 20.799C20.412 18.995 21.064 16.654 21.324 15.178C20.787 15.456 20.084 15.553 19.395 15.489C17.591 15.322 16.169 13.841 16.169 12C16.169 11.0717 16.5378 10.1815 17.1942 9.52513C17.8505 8.86875 18.7408 8.5 19.669 8.5C20.742 8.5 21.768 8.99 22.417 9.679ZM12.417 9.679C13.447 10.773 14 12 14 13.989C14 17.489 11.543 20.626 7.97004 22.177L7.07704 20.799C10.412 18.995 11.064 16.654 11.324 15.178C10.787 15.456 10.084 15.553 9.39504 15.489C7.59104 15.322 6.17004 13.841 6.17004 12C6.17004 11.0717 6.53879 10.1815 7.19517 9.52513C7.85155 8.86875 8.74179 8.5 9.67004 8.5C10.743 8.5 11.769 8.99 12.418 9.679H12.417Z" fill="white"/>
</svg>
